<?xml version="1.0" encoding="UTF-8"?>
<!DOCTYPE svg PUBLIC "-//W3C//DTD SVG 1.1//EN" "http://www.w3.org/Graphics/SVG/1.1/DTD/svg11.dtd">
<!-- Creator: CorelDRAW -->
<svg xmlns="http://www.w3.org/2000/svg" xml:space="preserve" width="5.227mm" height="6.236mm" version="1.1" style="shape-rendering:geometricPrecision; text-rendering:geometricPrecision; image-rendering:optimizeQuality; fill-rule:evenodd; clip-rule:evenodd"
viewBox="0 0 522.7 623.6"
 xmlns:xlink="http://www.w3.org/1999/xlink"
 xmlns:xodm="http://www.corel.com/coreldraw/odm/2003">
 <defs>
  <style type="text/css">
   <![CDATA[
    .fil0 {fill:#3C9E7D}
   ]]>
  </style>
 </defs>
 <g id="Camada_x0020_1">
  <metadata id="CorelCorpID_0Corel-Layer"/>
  <path class="fil0" d="M485.66 26.23c-1.11,2.94 -5.49,4.88 -9.01,7.37 -11.74,8.31 -17.9,15.22 -27.65,23.03 -10.6,8.48 -40.99,41.54 -49.88,52.82l-29.69 38.72c-4.4,6.1 -9.08,13.5 -13.54,19.42 -2.41,4.73 -19.48,31.42 -22.65,33.94 -0.99,5.59 -15.31,27.22 -19.4,34.79 -3.7,6.84 -14.61,29.13 -18.74,33.58l-7.73 15.56c-0.87,3.07 -29.61,62.76 -30.56,63.85 -1.09,5.51 -3.32,11.78 -7.08,15.14 -0.04,3.49 -16.78,44.6 -18.98,47.83 -1.13,6.09 -4.37,12.82 -6.19,18.24 -2.04,6.07 -4.19,11.19 -6.29,16.93 -2.88,-3.34 -6.16,-13.04 -8.04,-17.38 -2.35,-5.23 -10.18,-22.28 -10.27,-27.29l-14.44 -32.57c-2.67,-3.92 -22.57,-50.83 -23.41,-56.07l-8.03 -16.87 -2.48 -6.84c-5.08,2.79 -8.38,5.84 -13.69,8.24 -1.09,2.77 -17.15,13.57 -19.92,15.65 -7.05,5.28 -13.87,10.28 -20.41,15.19l-31.34 23.42c-5.04,3.81 -6.21,5.48 -10.89,6.59 -2.4,4.47 -16,13.21 -20.54,16.76 -6.47,5.05 -17.95,10.42 -20.54,17.51 7.14,0.61 28.39,14.14 34.57,18.54 3.38,2.41 28.07,19.34 28.84,23.19 6.1,3.52 11.25,7.02 14.63,13.27 3.84,1.11 3.32,1.42 6.28,4.3 4.78,2.27 12.89,11.18 15.63,16.24l4.97 4.97c5.48,2.42 11.48,8.44 13.24,13.36 3.63,2.54 4.31,3.45 5.93,7.18 5.69,2.93 9.33,7.22 11.45,12.82 4.7,1.74 16.53,17.61 20.52,22.79 14.23,18.52 45.21,57.1 55.67,76.23l0.43 0c2.91,-8.23 7.34,-15.51 11.24,-23.4 2.36,-4.79 7.81,-18.78 11.1,-20.41 2.04,-6.51 12.35,-27.14 17.14,-29.7 0.47,-5.82 15.7,-29.17 19.36,-35.13 3.68,-6 6.8,-11.06 10.43,-17 2.78,-4.55 7.73,-13.74 10.58,-15.38 2.43,-5.96 19.4,-32.69 24.02,-35.17 0.6,-4 0.62,-3.43 4.47,-8.91 23.52,-33.48 39.18,-52.66 63.1,-83.38 4.62,-5.93 20.51,-25.71 25.72,-28.12 1.93,-4.19 6.33,-8.22 9.53,-11.63 0.93,-1.17 1.93,-2.12 2.86,-2.8 3.13,-5.33 8.7,-10.18 14.07,-13.39 2.19,-3.11 3.31,-3.28 6.1,-6.29 3.82,-4.12 1.43,-3.09 6.32,-4.71 9.39,-9.89 27.74,-22.71 43.72,-27.29l0 -1.94c-4.19,-6.06 -10.56,-34.6 -12.32,-44.68 -3.06,-17.5 -4.31,-34.92 -4.59,-53.41 -0.57,-36.86 5.7,-71.24 7.32,-106.79l0.87 -17.29c-4.93,2.28 -6.54,4.21 -11.81,6.37z"/>
 </g>
</svg>
