<?xml version="1.0" encoding="UTF-8"?>
<!DOCTYPE svg PUBLIC "-//W3C//DTD SVG 1.1//EN" "http://www.w3.org/Graphics/SVG/1.1/DTD/svg11.dtd">
<!-- Creator: CorelDRAW -->
<svg xmlns="http://www.w3.org/2000/svg" xml:space="preserve" width="6mm" height="6mm" version="1.1" style="shape-rendering:geometricPrecision; text-rendering:geometricPrecision; image-rendering:optimizeQuality; fill-rule:evenodd; clip-rule:evenodd"
viewBox="0 0 600 600"
 xmlns:xlink="http://www.w3.org/1999/xlink"
 xmlns:xodm="http://www.corel.com/coreldraw/odm/2003">
 <defs>
  <style type="text/css">
   <![CDATA[
    .fil0 {fill:#3C9E7D}
   ]]>
  </style>
 </defs>
 <g id="Camada_x0020_1">
  <metadata id="CorelCorpID_0Corel-Layer"/>
  <g id="_1619697929232">
   <path class="fil0" d="M347.42 34.75c-1.81,3.74 -4.52,6.47 -8.29,8.24l-8.18 8.2c-1.78,3.77 -4.51,6.48 -8.25,8.29 -0.51,1.43 0.22,0.09 -0.95,1.74l-21.27 21.3c-4.6,4.62 -19.13,20.49 -23.06,22.27 -2.22,4.12 -6.09,8.15 -10.51,10.05l-16.9 17.78c-2.33,2.11 -3.52,2.99 -5.68,5.24 -5.74,5.99 -17.26,18.81 -22.38,22.21l-10.79 11.21 -6.17 5.32c-0.69,2.08 0.53,-0.03 -1.38,2.54 -0.63,0.84 -0.81,0.94 -1.54,1.67 -1.66,1.66 -2.48,2.39 -4.3,3.58l-32.72 32.41 -8.92 8.95 -5.4 5.41 -8.8 8.93c-5.44,7.63 -17.13,16.4 -24.24,23.69 -4.21,4.32 -7.7,7.82 -12.06,11.99 -4.32,4.11 -7.06,8.97 -12.01,11.38 -0.71,2.06 0.36,-0.03 -1.09,1.85 -0.15,0.2 -1.33,1.44 -1.53,1.63 -1.27,1.23 -2.08,2.03 -3.54,3.07 -4.68,7.55 -10.68,7.77 -15.39,18.92l-15.02 54.6c-0.1,0.16 -0.44,0.84 -0.51,0.67 -0.08,-0.17 -0.34,0.46 -0.54,0.66 0.43,3.39 -0.83,10.44 -2.81,13.33 -0.65,5.46 -2.66,11.49 -4.09,16.63 -0.87,3.15 -1.29,4.83 -2.05,7.88 -0.91,3.66 -0.97,4.83 -3.12,6.76 0.37,4.02 -0.08,5.75 -1.51,9.18 -0.59,2.92 -9.61,39.22 -11.9,42.52l-0.07 1.42 -15.28 57.99c-1.08,2.53 -0.34,1.39 -1.86,2.88 0.36,3.87 -0.44,5.48 -1.69,8.89 -2.44,12.73 -15.21,50.21 -13.94,60.12 2.83,3 2.07,5.81 8.63,6.38 3.65,0.32 10.36,-1.96 14.38,-3.02 9.05,-2.39 18.58,-5.62 28.32,-7.18l38.92 -10.22c1.65,-1.4 45.09,-12.79 48.86,-12.67 2.94,-2.84 10.19,-3.55 14.14,-4.63 5.29,-1.45 9.89,-2.67 15.57,-4.19 9.86,-2.62 20.23,-5.45 31.01,-7.97l5.32 -0.95c0.24,-0.18 0.62,-0.68 0.76,-0.45 0.13,0.23 0.58,-0.35 0.76,-0.43l6.96 -2.21c2.41,-0.66 5.43,-1.47 8.48,-2.37 5.87,-1.73 12.48,-3.35 19.27,-4.63 3.8,-1.71 8.38,-3.24 13.12,-2.95l31.71 -9.39c14.18,-3.55 13.54,-6.98 23.56,-16.68 14.24,-13.79 27.14,-26.23 40.81,-40.07l239.34 -238.44c2.79,-2.7 2.72,-3.61 5.1,-6.1l0.11 -6.18c-1.99,-2.28 -0.62,0.6 -1.2,-3.92 -0.26,-2.02 -0.07,-3 -0.46,-5.38 -0.43,-2.57 -1.5,-5.9 -2.26,-8.37 -1.61,-5.08 -7.48,-24.46 -7.07,-29.1 -2.05,-2.08 -0.6,0.54 -2.08,-3.66 -0.36,-1.04 -0.49,-2.16 -0.95,-3.51 -0.98,-2.93 -1.69,-3.55 -2.68,-6.29 -1.73,0.01 -1.82,1.54 -1.41,-0.58 -8.05,-0.96 -10.5,3.1 -14.06,6.74 -3.51,3.57 -6.3,6.37 -9.83,9.88l-263 261.76c-17.72,17.51 -4.46,34.38 1.6,62.82 -6.7,4.85 -2.78,5.17 -13.73,8.1 -12.48,3.34 -44.88,12.63 -53.01,13.69l-1.92 -0.27c-3.19,2.72 -14.89,5.14 -19.3,6.29 -7.11,1.84 -13.03,3.49 -20.01,5.37 -7.25,1.64 -17.79,5.53 -24.08,6.39 -4.92,0.67 -11.86,-8.76 -16.19,-12.89 -2.88,-3.36 -3.82,-3.33 -5.64,-6.71 -3.52,-1.94 -37.94,-36.41 -44.32,-42.71 -4.07,-4.02 -4.74,-3.46 -5.75,-6.71 -3.49,-1.76 -3.29,-1.55 -5.04,-5.04 -3.42,-1.07 -8.51,-7.42 -11.16,-10.07 -3.99,-3.98 -7.19,-8.16 -11.69,-11.13l1.92 -6.95c0.77,-3.68 8.62,-36.88 11.62,-40.27l-0.48 -2.31 11.87 -43.67c1.06,-3.87 2.66,-12.2 4.92,-15.41 -0.25,-5.31 3.84,-18.1 6.66,-21.19 6.76,-7.41 8.77,-2.41 19.46,-0.69 5.06,1.83 14.54,4.03 19.7,5.43 8.61,2.33 14.26,0.21 21.63,-1.75 1.69,-1.61 2.52,-1.66 4.45,-3.25l13.12 -13.21c4.43,-4.32 13.52,-14.75 17.86,-16.8 2.06,-3.78 3.78,-5.72 7.71,-7.54l4.02 -4.97c1.77,-1.19 0.32,-0.4 1.82,-0.88 1.8,-3.99 3.33,-5.41 7.27,-7.25 0.5,-1.75 -0.38,0.06 0.89,-1.85l4.84 -4.83c7.52,-6.89 39.93,-40.94 44.17,-42.76 1.79,-3.61 2.43,-4.19 6.01,-6 1.54,-3.73 6.34,-7.32 9.67,-10.62l132.07 -131.43c2.43,-2.44 17.24,-18.32 20.39,-19.38 1.7,-3.33 1.48,-2.84 4.46,-5l9.68 -9.68c4.54,-7.33 4.7,-6.56 -0.29,-13.81 -9.49,-0.61 -46.07,-13.77 -55.09,-13.38 -15.39,0.65 -15.7,3.8 -23.4,11.54 -3.14,3.16 -5.64,5.64 -8.79,8.78 -1.71,1.71 -2.59,2.71 -4.33,4.42 -0.89,0.88 -1.21,1.23 -2.25,2 -1.62,1.2 -0.35,0.45 -1.73,0.96z"/>
   <path class="fil0" d="M402.49 105.24c-0.83,2.24 -0.14,0.89 -1.95,2.99 -0.57,0.67 -1.5,1.51 -2.18,2.19l-5.18 4.13c-1.63,3.38 -1.31,3.03 -4.54,4.9 -1.38,2.26 -2.38,3.05 -4.47,5.17 -0.97,0.98 -1.76,1.89 -2.79,2.71 -2.02,1.6 -0.9,0.87 -2.39,1.41 -3.16,6.06 -10.6,11.63 -15.63,16.66 -4.76,4.76 -11.03,12.78 -16.66,15.58 -0.72,1.7 -0.28,1.04 -1.94,2.98 -0.76,0.89 -1.26,1.28 -2.19,2.21 -2.4,2.4 -2.46,3.38 -5.16,3.61l-3.87 4.89c-1.49,2.16 -2.66,3.19 -4.64,5.18 -2.42,2.43 -1.65,2.84 -4.58,3.05 -4.45,6.65 -33.25,34.39 -40.98,42.05l-72.76 72.69c-3.81,3.87 -7.06,5.91 -10.91,9.85 -9.94,10.16 -28.18,24.19 -27.48,34.97 0.42,6.47 5.64,7.71 8.46,12.86 3.17,1.52 14.61,12.95 16.09,16.1 4.11,2.28 10.14,8.23 12.41,12.34 1.36,-0.39 1.1,-0.61 0.7,0.76 3.97,2.13 11.42,9.46 13.5,13.44l1.8 1.75c4.12,2.17 10.13,8.35 12.34,12.44 3.63,1.61 13.15,11.33 15.04,14.75 5.36,1.54 6.28,2.27 12.77,1.11 1.7,-1.58 3.17,-1.88 5.39,-3.55 2.15,-1.6 3.17,-2.97 5.04,-4.85 3.11,-3.12 6.04,-7.03 9.5,-8.6 1.99,-3.89 5.41,-7.14 9.17,-9.26l3.91 -3.86c2.08,-4.08 6.29,-8.31 10.38,-10.37l3.87 -3.83c2.39,-4.33 7,-9.02 11.4,-11.33 1.91,-4.26 10.08,-10.99 14.12,-15.02 4.26,-4.27 10.32,-12.09 15.11,-14.12 1.89,-3.99 8.24,-10.16 11.33,-12.06l3.16 -2.97c1.96,-3.58 7.79,-9.41 11.81,-10.93 0.47,-1.36 -0.37,-0.35 0.86,-1.84 1.23,-1.51 0.05,-0.27 1.95,-1.26 2.5,-3.78 6.19,-7.81 10.4,-9.87 0.56,-1.51 -0.15,-0.39 1.44,-2.41l6.54 -6.56c1.71,-1.72 2.62,-2.64 4.35,-4.4 0.88,-0.91 1.31,-1.43 2.2,-2.14 1.94,-1.57 0.96,-0.92 2.4,-1.46 2.08,-4.2 6.06,-8.11 10.1,-10.36l5.1 -5.52c2.04,-2.94 3.82,-4.88 7.19,-6.5 0.63,-1.58 -0.1,-0.4 1.5,-2.47l5.67 -4.85c1.98,-3.86 5.31,-7.26 9.28,-9.13 1.01,-2.82 14.14,-15.79 16.97,-16.9 2.07,-4.2 6.14,-8.28 10.35,-10.33 0.57,-1.35 -0.1,-0.33 1.07,-1.92 0.16,-0.23 0.72,-0.92 0.92,-1.13 1.99,-2.02 1.21,-1.22 2.89,-1.9 1.98,-3.88 5.4,-7.03 8.9,-9.39l6.16 -5.92c4.5,-4.95 4.04,-5.53 10.09,-9.36 0.24,-3.29 0.51,-2.06 3.24,-4.38l11.47 -11.52c3.91,-3.64 12.46,-12.9 15.62,-14.59l7.75 -8.18 7.9 -7.34c1.27,-2.87 5.28,-7.3 7.16,-9.55l0.43 -2.39c0.39,-8.76 -2.69,-9.77 -6.77,-13.98l-67.53 -66.93c-4.79,-4.72 -11.39,-15.55 -24.16,-4.47l-38.45 38.08c-5.05,5.09 -14.18,16.04 -19.99,18.85z"/>
  </g>
 </g>
</svg>
