<?xml version="1.0" encoding="UTF-8"?>
<!DOCTYPE svg PUBLIC "-//W3C//DTD SVG 1.1//EN" "http://www.w3.org/Graphics/SVG/1.1/DTD/svg11.dtd">
<!-- Creator: CorelDRAW -->
<svg xmlns="http://www.w3.org/2000/svg" xml:space="preserve" width="31.037mm" height="35.508mm" version="1.1" style="shape-rendering:geometricPrecision; text-rendering:geometricPrecision; image-rendering:optimizeQuality; fill-rule:evenodd; clip-rule:evenodd"
viewBox="0 0 3103.7 3550.8"
 xmlns:xlink="http://www.w3.org/1999/xlink"
 xmlns:xodm="http://www.corel.com/coreldraw/odm/2003">
 <defs>
  <style type="text/css">
   <![CDATA[
    .fil0 {fill:#3C9E7D}
   ]]>
  </style>
 </defs>
 <g id="Camada_x0020_1">
  <metadata id="CorelCorpID_0Corel-Layer"/>
  <g id="_2397241464000">
   <path class="fil0" d="M1110.69 660.68l870.27 0c286.12,0 520.23,234.11 520.23,520.23l0 1814.97c0,286.12 -234.11,520.23 -520.23,520.23l-870.27 0c-286.13,0 -520.23,-234.11 -520.23,-520.23l0 -1814.97c0,-286.12 234.1,-520.23 520.23,-520.23zm-434.79 1035.65l1739.85 0 0 773.5 -1739.85 0 0 -773.5z"/>
   <rect class="fil0" x="867.67" y="39.89" width="232.5" height="549.34"/>
   <rect class="fil0" x="1168.81" y="39.89" width="347.62" height="549.34"/>
   <rect class="fil0" x="1585.92" y="39.89" width="269.22" height="549.34"/>
   <rect class="fil0" x="1912.38" y="39.89" width="326.78" height="549.34"/>
   <g>
    <rect class="fil0" x="1458.67" y="1776.12" width="174.29" height="624.53" rx="1062.35" ry="1062.35"/>
    <rect class="fil0" transform="matrix(2.81359E-14 1.06235 -1.06235 2.81359E-14 1858.09 2001.25)" width="164.06" height="587.87" rx="1000" ry="1000"/>
   </g>
  </g>
 </g>
</svg>
