<?xml version="1.0" encoding="UTF-8"?>
<!DOCTYPE svg PUBLIC "-//W3C//DTD SVG 1.1//EN" "http://www.w3.org/Graphics/SVG/1.1/DTD/svg11.dtd">
<!-- Creator: CorelDRAW -->
<svg xmlns="http://www.w3.org/2000/svg" xml:space="preserve" width="31.037mm" height="35.508mm" version="1.1" style="shape-rendering:geometricPrecision; text-rendering:geometricPrecision; image-rendering:optimizeQuality; fill-rule:evenodd; clip-rule:evenodd"
viewBox="0 0 3103.7 3550.8"
 xmlns:xlink="http://www.w3.org/1999/xlink"
 xmlns:xodm="http://www.corel.com/coreldraw/odm/2003">
 <defs>
  <style type="text/css">
   <![CDATA[
    .fil0 {fill:#3C9E7D}
   ]]>
  </style>
 </defs>
 <g id="Camada_x0020_1">
  <metadata id="CorelCorpID_0Corel-Layer"/>
  <g id="_2397162655024">
   <path class="fil0" d="M2246.77 2461.56l-302.21 -129.36c-40.4,32.77 -368.98,336.5 -392.31,348.38l-103.46 -87.12c-33.04,-28.87 -65.04,-54.62 -100.99,-84.86l-204.64 -177.74 -366.38 162.28c-61.32,27.11 0,0 -61.32,27.11 -34.66,8.84 -93.22,39.68 -127.41,55.1 -337.07,151.97 -380.16,131.07 -451.35,446.41 -12.35,54.71 -54.33,252.37 -50.43,300.38 778.17,235.29 1776.38,276.64 2593.25,86.17 105.76,-24.65 232.63,-52.33 326.12,-86.96 -7.93,-102.11 -35.5,-230.58 -58.11,-326.99 -27.75,-118.42 -49.4,-200.86 -122.42,-260.38 -47.83,-39.02 -186.89,-97.61 -254.65,-127.81l-260.44 -115.46c-63.25,-29.15 0,0 -63.25,-29.15z"/>
   <path class="fil0" d="M922.02 1116.92c74.59,-25.44 165.4,-43.81 243.29,-69.07 79.11,-25.65 149.67,-51.37 223.65,-84.48 129.35,-57.91 301.99,-159.28 351.33,-263.72 14.72,10.41 15.11,16.97 24,34.2 69.92,135.7 279.36,291.35 403.56,334.35l0.57 474.25c0,231.05 -119.56,403.84 -239.24,495.36 -342.74,262.07 -810.04,110.95 -956.14,-244.18 -78.23,-190.15 -48.91,-452.34 -51.02,-676.71zm-86.65 -729.1c-5.3,17.42 -3.28,10.72 -10.82,16.79 -76.03,128.5 -127.29,203.57 -158.14,371.45 -57.28,311.77 55.17,423.84 -122.36,951.89 -22.08,65.6 -47.68,129.88 -73.86,192.15l-82.64 187.17 -9.08 20.51c1.14,1.04 2.47,2.82 3.06,3.49l8.45 9.59c16.28,0.26 197.77,33.28 293.07,38.38 142.97,7.65 325.63,-2.28 461.63,-45.3 55.24,-17.46 35.67,-2.88 122.17,35.23 196.29,86.51 429.29,80.79 611.7,-27.78 50.2,-29.88 72.04,1.92 204.17,23.77 103.9,17.17 214.62,20.9 323.16,14.81 103.13,-5.79 277.02,-39.07 297.63,-39.56 8.96,-11.18 5.64,-3.01 7.38,-18.88l-83.14 -184.4c-28.38,-65.1 -51.94,-126.84 -76.23,-195.06 -180.1,-505.89 -72.4,-657.91 -126.01,-959.88 -126.96,-715.39 -1009.82,-1027.02 -1528.05,-466.37 -12.51,13.56 -49.85,63.75 -62.09,72z"/>
   <path class="fil0" d="M389.98 2140.86l-8.45 -9.59c-0.59,-0.67 -1.92,-2.45 -3.06,-3.49l9.08 -20.51c-4.4,3.93 -4.85,2.81 -8.94,8.47 -0.68,0.92 -5.5,9.23 -5.68,9.97 -3.17,14.11 4.96,12.22 17.05,15.15z"/>
   <path class="fil0" d="M2703.51 2140.41l15.4 -6.01c-1.6,-21.87 0.83,-3.36 -8.02,-12.87 -1.74,15.87 1.58,7.7 -7.38,18.88z"/>
   <path class="fil0" d="M824.55 404.61c7.54,-6.07 5.52,0.63 10.82,-16.79l-10.82 16.79z"/>
  </g>
 </g>
</svg>
