<?xml version="1.0" encoding="UTF-8"?>
<!DOCTYPE svg PUBLIC "-//W3C//DTD SVG 1.1//EN" "http://www.w3.org/Graphics/SVG/1.1/DTD/svg11.dtd">
<!-- Creator: CorelDRAW -->
<svg xmlns="http://www.w3.org/2000/svg" xml:space="preserve" width="31.037mm" height="35.508mm" version="1.1" style="shape-rendering:geometricPrecision; text-rendering:geometricPrecision; image-rendering:optimizeQuality; fill-rule:evenodd; clip-rule:evenodd"
viewBox="0 0 3103.7 3550.8"
 xmlns:xlink="http://www.w3.org/1999/xlink"
 xmlns:xodm="http://www.corel.com/coreldraw/odm/2003">
 <defs>
  <style type="text/css">
   <![CDATA[
    .fil0 {fill:#3C9E7D}
   ]]>
  </style>
 </defs>
 <g id="Camada_x0020_1">
  <metadata id="CorelCorpID_0Corel-Layer"/>
  <g id="_2397237251536">
   <path class="fil0" d="M818.81 2477.47c-1.07,1.04 -2.6,2.32 -3.34,3.02l-19.35 21.24c3.46,87.25 -21.49,260.29 6.69,365.99 51.88,24.54 72.61,17.2 108.29,58.55 97.82,113.39 26.77,289.74 -124.7,295.14 -178.23,6.36 -253.23,-226.3 -101.04,-325.1 21.89,-14.22 39.11,-14.69 55.21,-28.59 -1.49,-57.11 -9.11,-113.1 -10.25,-172.59 -1.16,-61.42 4.43,-118.96 5.3,-179.25 -39.63,10.13 -228.24,91.71 -279.04,113.97 -259.45,113.7 -337.88,107.28 -403.22,367.44 -18.03,71.75 -59.84,250.8 -59.39,323.47 51.28,29.03 274.95,83.82 346.9,99.92 126.26,28.25 246.99,52.67 376.65,71.83 566.66,83.69 1093.74,78.81 1659.7,-0.38 311.39,-43.57 440.3,-92.72 720.48,-168.13 -6,-98.57 -37.82,-238.71 -61.84,-333.4 -29.89,-117.76 -56.85,-193.15 -144.17,-243.43 -92.17,-53.08 -418.89,-186.65 -533.1,-232.1 -5.87,30.32 0.19,123.55 -1.53,163.9 -2.08,48.77 -11.33,105.48 -10.52,150.99 61.38,31.17 83.1,31.48 128.26,80.45 88.06,95.49 84.51,201.71 74.07,328.4 -4.1,49.86 -2.94,144.85 -32.47,171.84 -38.6,5.16 -118.67,-8.36 -143.44,-25.23 -13.82,-82.35 50.06,-159.48 61.44,-40.56l45.03 3.45c6.35,-96.26 34.51,-227.2 2.35,-315.13 -27.19,-74.34 -94.94,-147.03 -190.6,-152.95 -105.58,-6.52 -183.22,59.28 -218.63,125.13 -23.76,44.18 -65.24,214.87 -66.79,276.86l42.57 4.63c8.65,-17.42 5.05,-23.19 16.18,-41.13 72.85,-15.88 45.78,75.93 26.97,100.07 -26.25,7.29 -90.41,-3.56 -118.37,-9.52 -45.84,-9.79 -30.18,-44.14 -22.83,-86.86 11.97,-69.54 25.74,-143.24 45.11,-208.05 35.84,-119.93 137.26,-220.02 287.8,-219.74 21.6,-54.57 17.19,-262.9 12.04,-331.19 -25.25,-14.55 -274.36,-115.24 -302.33,-118.99l-330.08 348.04c-24.32,25.27 -96.15,102.26 -110.68,110.37 -37.55,-25.93 -413.21,-424.61 -459.25,-459.91l-274.08 107.53z"/>
   <path class="fil0" d="M733.49 1335.99c-14.72,-69.74 17.86,-117.32 55.78,-142.68 108.86,-72.82 155.37,-93.49 160.19,-251.27 4.36,-142.25 115.27,-332.43 320.67,-267.66 56.32,17.75 87.82,47.32 148.83,56.01 75.32,10.74 111.87,-16.12 166.78,-34.85 113,-38.56 247.5,-16.72 332.88,36.65 111.96,69.99 115.45,109.24 181.31,228.45 152.16,275.42 269.89,209.8 260.49,353.85 -4.38,67.04 -41.71,92.9 -80.67,123.49 -42.3,33.22 -43.19,77.42 -62.44,136.73 -102.9,317.2 -339.62,738.61 -756.78,667.97 -475.24,-80.49 -581.48,-734.57 -636.18,-793.86 -33.96,-36.82 -75.01,-37.65 -90.86,-112.83zm375.4 -1052.83c-220.73,-8.17 -314.17,89.14 -355.89,275.3 -20.6,91.93 -27.15,193.09 -26.59,292.13 0.29,49.7 2.85,100.88 6.86,151.22 3.7,46.36 14.96,100.97 15.34,145.41 -45.52,44.18 -87.62,86.97 -76.01,183.14 12.78,105.83 80.02,131.66 106.65,158.2 13.68,13.63 58.28,161.03 70.91,193.83 24.62,63.97 52.78,122.84 81.5,182.05 284.68,586.9 933.88,595.6 1224.43,5.42 28.4,-57.69 54.76,-115.18 81.22,-177.79 14.5,-34.3 57.14,-180.53 68.1,-196.35 16.97,-24.5 90.77,-48.81 110.94,-152.83 15.17,-78.26 -21.26,-163.22 -68.41,-186.64 21.78,-112.42 54.46,-127.09 44.86,-300.4 -39.42,-711.11 -1010.52,-1181.83 -1283.91,-572.69z"/>
   <path class="fil0" d="M663.72 3067.28c9.23,56.74 67.31,106.02 135.96,94.48 58.15,-9.77 108.02,-65.36 96.7,-135.6 -24.36,-151.12 -258.69,-119.11 -232.66,41.12z"/>
   <path class="fil0" d="M796.12 2501.73l19.35 -21.24c0.74,-0.7 2.27,-1.98 3.34,-3.02l-20.49 8.85 -2.2 15.41z"/>
  </g>
 </g>
</svg>
