<?xml version="1.0" encoding="UTF-8"?>
<!DOCTYPE svg PUBLIC "-//W3C//DTD SVG 1.1//EN" "http://www.w3.org/Graphics/SVG/1.1/DTD/svg11.dtd">
<!-- Creator: CorelDRAW -->
<svg xmlns="http://www.w3.org/2000/svg" xml:space="preserve" width="5.227mm" height="6.236mm" version="1.1" style="shape-rendering:geometricPrecision; text-rendering:geometricPrecision; image-rendering:optimizeQuality; fill-rule:evenodd; clip-rule:evenodd"
viewBox="0 0 522.7 623.6"
 xmlns:xlink="http://www.w3.org/1999/xlink"
 xmlns:xodm="http://www.corel.com/coreldraw/odm/2003">
 <defs>
  <style type="text/css">
   <![CDATA[
    .fil0 {fill:mediumaquamarine}
   ]]>
  </style>
 </defs>
 <g id="Camada_x0020_1">
  <metadata id="CorelCorpID_0Corel-Layer"/>
  <g id="_1744536920112">
   <path class="fil0" d="M254.35 255.67c11.69,-4.42 22.22,4.04 23.63,14.18 1.08,7.71 0.17,208.65 0.21,238.74 0,5.86 0.71,12.25 -1.61,17.34 -7.09,15.55 -31.06,13.34 -34.03,-4.64 -1.2,-7.25 -0.19,-208.77 -0.28,-238.73 -0.03,-14.47 0.32,-22.43 12.08,-26.89zm114.7 -0.25c13.18,-2.92 22.54,6.84 21.86,19.94 -0.66,12.71 -2.29,26.34 -3.49,39.08 -2.43,25.67 -4.35,51.41 -6.68,77.06l-10.24 117.13c-1.19,13.76 -2.36,24.68 -15.4,26.92 -13.37,2.3 -21.86,-7.08 -21.35,-19.61 0.5,-12.3 2.21,-25.78 3.26,-38.21 2.21,-26.01 4.49,-52.03 6.87,-78.02l10.25 -117.13c1.25,-13.7 2.01,-24.3 14.92,-27.16zm-225.18 -0.14c13.77,-2.89 20.86,7.71 21.9,20.08l16.83 193.29c1.09,13.02 2.29,26.23 3.47,39.13 3.35,36.73 -23.79,28.84 -29.61,23.44 -7.86,-7.31 -7.81,-39.25 -9.27,-54.5 -2.47,-25.72 -4.57,-51.54 -6.71,-77.21l-10.23 -116.45c-1.2,-15.05 -0.22,-24.88 13.62,-27.78zm338 -66.85l-443.24 -0.01c-0.5,6.99 37.64,271.2 38.6,278.26l16.99 121.42c0.9,6.8 1.04,12.11 7.07,13.75 7.97,2.16 65.92,0.52 78.83,0.51 16.92,-0.01 232.3,0.93 238.24,-0.33 9.38,-1.98 8.57,-19.45 9.97,-29.25 5.31,-37.18 53.94,-378.1 53.54,-384.35z"/>
   <path class="fil0" d="M188.18 86.49c-1.53,-18.21 4.76,-25.9 22.75,-25.89l98.65 0c18.44,-0.01 26,10.57 22.4,26.28l-143.8 -0.39zm-36.66 0.03c-15.21,2.96 -85.95,-2.31 -103.76,1.05 -13.9,2.63 -24.12,12.29 -28.26,24.12 -3.02,8.63 -2.54,41.23 -1.87,51.72l485.27 -0.06c0.44,-11.4 1.2,-41.46 -1.66,-50.83 -3.59,-11.81 -14.63,-22.13 -27.65,-24.79 -17.92,-3.67 -87.98,1.81 -104.64,-1.2 -1.35,-16.15 0.06,-21.22 -7.38,-34.71 -19.54,-35.48 -62.98,-27.47 -101.31,-27.47 -37.39,0 -81.41,-7.89 -100.99,26.77 -7.97,14.11 -6.33,18.73 -7.75,35.4z"/>
  </g>
 </g>
</svg>
