<?xml version="1.0" encoding="UTF-8"?>
<!DOCTYPE svg PUBLIC "-//W3C//DTD SVG 1.1//EN" "http://www.w3.org/Graphics/SVG/1.1/DTD/svg11.dtd">
<!-- Creator: CorelDRAW -->
<svg xmlns="http://www.w3.org/2000/svg" xml:space="preserve" width="11.628mm" height="12.1198mm" version="1.1" style="shape-rendering:geometricPrecision; text-rendering:geometricPrecision; image-rendering:optimizeQuality; fill-rule:evenodd; clip-rule:evenodd"
viewBox="0 0 1162.8 1211.98"
 xmlns:xlink="http://www.w3.org/1999/xlink"
 xmlns:xodm="http://www.corel.com/coreldraw/odm/2003">
 <defs>
  <style type="text/css">
   <![CDATA[
    .str1 {stroke:#3C9E7D;stroke-width:100;stroke-miterlimit:22.9256}
    .str0 {stroke:#201E1E;stroke-width:127.4;stroke-miterlimit:22.9256}
    .fil0 {fill:none}
    .fil1 {fill:#FEFEFE}
    .fil2 {fill:#201E1E}
   ]]>
  </style>
    <clipPath id="id0">
     <path d="M575.38 93.88c272.72,0 493.82,221.09 493.82,493.82 0,272.72 -221.1,493.81 -493.82,493.81 -272.72,0 -493.82,-221.09 -493.82,-493.81 0,-272.73 221.1,-493.82 493.82,-493.82z"/>
    </clipPath>
 </defs>
 <g id="Camada_x0020_1">
  <metadata id="CorelCorpID_0Corel-Layer"/>
  <g id="_2433187037456">
   <g>
    <path class="fil0 str0" d="M575.38 93.88c272.72,0 493.82,221.09 493.82,493.82 0,272.72 -221.1,493.81 -493.82,493.81 -272.72,0 -493.82,-221.09 -493.82,-493.81 0,-272.73 221.1,-493.82 493.82,-493.82z"/>
   </g>
   <path id="_1" class="fil1" d="M575.38 93.88c272.72,0 493.82,221.09 493.82,493.82 0,272.72 -221.1,493.81 -493.82,493.81 -272.72,0 -493.82,-221.09 -493.82,-493.81 0,-272.73 221.1,-493.82 493.82,-493.82z"/>
   <g style="clip-path:url(#id0)">
    <g>
     <rect class="fil0 str1" x="1923.99" y="4071.98" width="6048.1" height="6480.91" rx="621.8" ry="666.3"/>
    </g>
   </g>
   <path class="fil2" d="M369.67 759.68c-0.3,0.22 -0.73,0.49 -0.94,0.65l-8.59 3.44c0,0 -13.76,4.13 -13.76,4.13 -11.1,2.16 -63.89,19.62 -78.11,24.38 -72.62,24.33 -94.58,22.96 -112.88,78.63 -5.04,15.34 6.57,38.67 6.69,54.22 14.36,6.21 144.45,125.5 164.59,128.95 35.35,6.04 169.02,62.5 205.32,66.6 158.63,17.91 274.36,-59.6 391.13,-119.86 0,0 30.38,-35.03 80.5,-84.47 -1.68,-21.09 -6.61,-26.61 -13.33,-46.87 -8.37,-25.2 -15.91,-41.33 -40.36,-52.09 -25.8,-11.36 -117.26,-39.94 -149.22,-49.67 0,0 -17.74,-5.27 -17.74,-5.27 -7.07,-3.11 -76.81,-24.66 -84.64,-25.45l-92.4 74.46c-6.81,5.41 -26.91,21.89 -30.98,23.62 -10.52,-5.55 -115.67,-90.86 -128.55,-98.41l-76.73 23.01z"/>
   <circle class="fil2" cx="574.17" cy="530.99" r="201.04"/>
  </g>
 </g>
</svg>
